<svg width="42" height="41" viewBox="0 0 42 41" fill="none" xmlns="http://www.w3.org/2000/svg">
<rect width="41.4542" height="41" fill="black" fill-opacity="0"/>
<path fill-rule="evenodd" clip-rule="evenodd" d="M0 20.5C0 9.17816 9.27984 0 20.7271 0C32.1744 0 41.4542 9.17816 41.4542 20.5C41.4542 31.8218 32.1744 41 20.7271 41C9.27984 41 0 31.8218 0 20.5Z" fill="#55ACEE"/>
<path fill-rule="evenodd" clip-rule="evenodd" d="M20.1064 16.6626L20.1499 17.3719L19.425 17.2851C16.7863 16.9521 14.4811 15.823 12.5239 13.9265L11.567 12.9856L11.3205 13.6804C10.7986 15.2294 11.1321 16.8653 12.2194 17.9655C12.7993 18.5735 12.6689 18.6603 11.6685 18.2984C11.3205 18.1826 11.0161 18.0958 10.9871 18.1392C10.8856 18.2405 11.2335 19.5579 11.509 20.079C11.886 20.8029 12.6544 21.5122 13.4953 21.932L14.2057 22.265L13.3648 22.2795C12.5529 22.2795 12.5239 22.2939 12.6109 22.5979C12.9008 23.5389 14.0462 24.5378 15.322 24.9721L16.2209 25.2761L15.438 25.7393C14.2782 26.4052 12.9153 26.7816 11.5525 26.8106C10.9001 26.8251 10.3636 26.883 10.3636 26.9264C10.3636 27.0712 12.1324 27.8818 13.1618 28.2003C16.2499 29.1413 19.9179 28.736 22.6726 27.1291C24.6299 25.9854 26.5871 23.7126 27.5005 21.5122C27.9934 20.3396 28.4864 18.1971 28.4864 17.1693C28.4864 16.5034 28.5299 16.4165 29.3418 15.6203C29.8202 15.157 30.2697 14.6504 30.3566 14.5056C30.5016 14.2305 30.4871 14.2305 29.7477 14.4766C28.5154 14.9109 28.3414 14.853 28.9503 14.2016C29.3998 13.7383 29.9362 12.8987 29.9362 12.6526C29.9362 12.6092 29.7187 12.6816 29.4723 12.8119C29.2113 12.9566 28.6314 13.1738 28.1964 13.3041L27.4135 13.5502L26.7031 13.0724C26.3116 12.8119 25.7607 12.5223 25.4708 12.4355C24.7313 12.2328 23.6005 12.2617 22.9336 12.4934C21.1213 13.1448 19.9759 14.8241 20.1064 16.6626Z" fill="white"/>
</svg>