<svg width="26" height="26" viewBox="0 0 26 26" fill="none" xmlns="http://www.w3.org/2000/svg">
<rect width="25.8921" height="25.5738" fill="black" fill-opacity="0"/>
<path fill-rule="evenodd" clip-rule="evenodd" d="M0 12.7869C0 5.72488 5.79615 0 12.9461 0C20.096 0 25.8921 5.72488 25.8921 12.7869C25.8921 19.8489 20.096 25.5738 12.9461 25.5738C5.79615 25.5738 0 19.8489 0 12.7869Z" fill="#FF0000"/>
<path fill-rule="evenodd" clip-rule="evenodd" d="M19.5621 9.6292C19.4032 9.02662 18.9353 8.55211 18.3411 8.39106C17.2643 8.09839 12.9461 8.09839 12.9461 8.09839C12.9461 8.09839 8.62781 8.09839 7.55094 8.39106C6.95675 8.55211 6.48881 9.02662 6.33 9.6292C6.0415 10.7213 6.0415 13 6.0415 13C6.0415 13 6.0415 15.2787 6.33 16.3709C6.48881 16.9734 6.95675 17.4479 7.55094 17.6091C8.62781 17.9017 12.9461 17.9017 12.9461 17.9017C12.9461 17.9017 17.2643 17.9017 18.3411 17.6091C18.9353 17.4479 19.4032 16.9734 19.5621 16.3709C19.8506 15.2787 19.8506 13 19.8506 13C19.8506 13 19.8506 10.7213 19.5621 9.6292Z" fill="white"/>
<path fill-rule="evenodd" clip-rule="evenodd" d="M11.6514 15.3443V11.082L15.1037 13.2132L11.6514 15.3443Z" fill="#FF0000"/>
</svg>